<?xml version="1.0" encoding="utf-8"?>
<svg id="Layer_1" x="0px" y="0px" width="120px" viewBox="3 -13 168 158" xmlns="http://www.w3.org/2000/svg">
  <defs>
    <style id="bx-google-fonts">@import url(https://fonts.googleapis.com/css?family=Aguafina+Script:400);</style>
  </defs>
  <g transform="matrix(0.747582, 0, 0, 0.729916, 33.580944, -8.851038)">
    <path d="M141.2,135.1L127,108.4c-2.6,1.8-5.3,3.4-8.2,4.8L141.2,135.1z" style="fill: rgb(243, 154, 30);"/>
    <path d="M132.1,140.9l-14.3-26.7c-2.6,1.8-5.3,3.4-8.2,4.8L132.1,140.9z" style="fill: rgb(243, 154, 30);"/>
    <path d="M122.6,146.3l-14.3-26.7c-2.6,1.8-5.3,3.4-8.2,4.8L122.6,146.3z" style="fill: rgb(243, 154, 30);"/>
    <path d="M10.6,135.4l14.3-26.7c2.6,1.8,5.3,3.4,8.2,4.8L10.6,135.4z" style="fill: rgb(243, 154, 30);"/>
    <path d="M19.7,141.2L34,114.5c2.6,1.8,5.3,3.4,8.2,4.8L19.7,141.2z" style="fill: rgb(243, 154, 30);"/>
    <path d="M29.2,146.5l14.2-26.7c2.6,1.8,5.3,3.4,8.2,4.8L29.2,146.5z" style="fill: rgb(243, 154, 30);"/>
    <g>
      <path d="M75,18.6C67.4,22.4,61.9,28.7,58.8,38c-3.4,10.3-4,24.2-1.3,42.4h12.9c0.4-5.2,9.5-5.2,10,0h12.3&#10;&#9;&#9;&#9;c2.7-18.2,2.1-32.2-1.3-42.4C88.1,28.7,82.6,22.4,75,18.6z M75,67c-4.7,0-8.4-13.1-8.4-17.8c0-4.6,3.8-8.4,8.4-8.4&#10;&#9;&#9;&#9;c4.6,0,8.4,3.8,8.4,8.4C83.4,53.9,79.6,67,75,67z" style="fill: none;"/>
      <path d="M75,40.9c-4.7,0-8.4,3.8-8.4,8.4c0,4.7,3.8,17.8,8.4,17.8c4.6,0,8.4-13.1,8.4-17.8&#10;&#9;&#9;&#9;C83.4,44.6,79.6,40.9,75,40.9z" style="fill: rgb(73, 73, 73);"/>
      <path d="M122.5,78.6c-3.2-5.7-8.3-10.3-15.1-13.8c0.5-10.3-0.1-20.6-3.6-31C99.1,19.5,90,10.2,77.5,5.1l-2.5-1&#10;&#9;&#9;&#9;l-2.5,1C60,10.2,50.9,19.5,46.2,33.9c-2.8,8.4-4.1,18.6-3.6,30.7l0.1,1.1c-6.1,3.4-10.7,7.7-13.7,13c-3.7,6.5-4.9,14.3-3.6,23.5&#10;&#9;&#9;&#9;l0.4,2.9l30.4,17.1l-1.3-28.3l14.7,0c-0.1,3.9-0.1,7.8,0.3,11.8c2.5,0,8.5,0,10.9,0c0.4-3.9,0.5-7.8,0.4-11.8l15.6-0.1l-1.3,28.3&#10;&#9;&#9;&#9;l30.4-17.1l0.4-2.9C127.4,93,126.2,85.1,122.5,78.6z M92.6,80.5H80.3c-0.5-5.2-9.6-5.2-10,0H57.4c-2.7-18.2-2.1-32.2,1.3-42.4&#10;&#9;&#9;&#9;c3.1-9.3,8.7-15.6,16.2-19.4c7.6,3.8,13.1,10.1,16.2,19.4C94.6,48.3,95.3,62.3,92.6,80.5z" style="fill: rgb(73, 73, 73);"/>
    </g>
  </g>
  <text x="-16.686" y="62.757" transform="matrix(1.183813, 0, 0, 0.920121, 27.433374, 65.244934)" style="font-size: 39.3653px; font-family: &quot;Aguafina Script&quot;; word-spacing: 0px; fill: rgb(73, 73, 73);">Bangla</text>
  <text style="font-size: 30px; font-family: &quot;Aguafina Script&quot;; fill: rgb(73, 73, 73); word-spacing: 0px;" x="56.146" y="167.943" transform="matrix(1.256095, 0, 0, 1.188316, 43.999409, -78.490677)">webs</text>
</svg>