<?xml version="1.0" encoding="utf-8"?>
<svg id="Layer_1" x="0px" y="0px" width="120px" viewBox="3 -13 168 158" xmlns="http://www.w3.org/2000/svg" xmlns:bx="https://boxy-svg.com">
  <g transform="matrix(0.747582, 0, 0, 0.729916, 33.580944, -8.851038)">
    <path d="M141.2,135.1L127,108.4c-2.6,1.8-5.3,3.4-8.2,4.8L141.2,135.1z" style="fill: rgb(243, 154, 30);"/>
    <path d="M132.1,140.9l-14.3-26.7c-2.6,1.8-5.3,3.4-8.2,4.8L132.1,140.9z" style="fill: rgb(243, 154, 30);"/>
    <path d="M122.6,146.3l-14.3-26.7c-2.6,1.8-5.3,3.4-8.2,4.8L122.6,146.3z" style="fill: rgb(243, 154, 30);"/>
    <path d="M10.6,135.4l14.3-26.7c2.6,1.8,5.3,3.4,8.2,4.8L10.6,135.4z" style="fill: rgb(243, 154, 30);"/>
    <path d="M19.7,141.2L34,114.5c2.6,1.8,5.3,3.4,8.2,4.8L19.7,141.2z" style="fill: rgb(243, 154, 30);"/>
    <path d="M29.2,146.5l14.2-26.7c2.6,1.8,5.3,3.4,8.2,4.8L29.2,146.5z" style="fill: rgb(243, 154, 30);"/>
    <g>
      <path d="M75,18.6C67.4,22.4,61.9,28.7,58.8,38c-3.4,10.3-4,24.2-1.3,42.4h12.9c0.4-5.2,9.5-5.2,10,0h12.3&#10;&#9;&#9;&#9;c2.7-18.2,2.1-32.2-1.3-42.4C88.1,28.7,82.6,22.4,75,18.6z M75,67c-4.7,0-8.4-13.1-8.4-17.8c0-4.6,3.8-8.4,8.4-8.4&#10;&#9;&#9;&#9;c4.6,0,8.4,3.8,8.4,8.4C83.4,53.9,79.6,67,75,67z" style="fill: none;"/>
      <path d="M75,40.9c-4.7,0-8.4,3.8-8.4,8.4c0,4.7,3.8,17.8,8.4,17.8c4.6,0,8.4-13.1,8.4-17.8&#10;&#9;&#9;&#9;C83.4,44.6,79.6,40.9,75,40.9z" style="fill: rgb(73, 73, 73);"/>
      <path d="M122.5,78.6c-3.2-5.7-8.3-10.3-15.1-13.8c0.5-10.3-0.1-20.6-3.6-31C99.1,19.5,90,10.2,77.5,5.1l-2.5-1&#10;&#9;&#9;&#9;l-2.5,1C60,10.2,50.9,19.5,46.2,33.9c-2.8,8.4-4.1,18.6-3.6,30.7l0.1,1.1c-6.1,3.4-10.7,7.7-13.7,13c-3.7,6.5-4.9,14.3-3.6,23.5&#10;&#9;&#9;&#9;l0.4,2.9l30.4,17.1l-1.3-28.3l14.7,0c-0.1,3.9-0.1,7.8,0.3,11.8c2.5,0,8.5,0,10.9,0c0.4-3.9,0.5-7.8,0.4-11.8l15.6-0.1l-1.3,28.3&#10;&#9;&#9;&#9;l30.4-17.1l0.4-2.9C127.4,93,126.2,85.1,122.5,78.6z M92.6,80.5H80.3c-0.5-5.2-9.6-5.2-10,0H57.4c-2.7-18.2-2.1-32.2,1.3-42.4&#10;&#9;&#9;&#9;c3.1-9.3,8.7-15.6,16.2-19.4c7.6,3.8,13.1,10.1,16.2,19.4C94.6,48.3,95.3,62.3,92.6,80.5z" style="fill: rgb(73, 73, 73);"/>
    </g>
  </g>
  <path d="M -9.406 63.817 C -10.846 63.817 -11.933 63.464 -12.666 62.757 C -13.406 62.05 -13.776 61.067 -13.776 59.807 L -13.696 58.937 C -13.696 58.73 -13.749 58.627 -13.856 58.627 L -14.086 58.777 C -14.719 59.83 -15.376 60.797 -16.056 61.677 C -16.736 62.557 -17.259 63.18 -17.626 63.547 L -18.186 64.057 C -18.553 64.397 -18.826 64.567 -19.006 64.567 C -19.193 64.567 -19.286 64.41 -19.286 64.097 C -19.286 63.677 -19.153 63.164 -18.886 62.557 C -18.493 61.69 -17.949 60.53 -17.256 59.077 C -16.563 57.617 -15.173 55.03 -13.086 51.317 C -10.999 47.604 -8.973 44.33 -7.006 41.497 C -5.006 38.61 -3.456 36.644 -2.356 35.597 C -1.963 35.204 -1.663 35.007 -1.456 35.007 C -1.323 35.007 -1.256 35.11 -1.256 35.317 C -1.256 35.37 -1.283 35.554 -1.336 35.867 C -1.569 36.92 -2.499 38.85 -4.126 41.657 C -7.379 46.957 -9.743 51.26 -11.216 54.567 C -12.183 56.434 -12.666 58.154 -12.666 59.727 C -12.666 60.62 -12.433 61.347 -11.966 61.907 C -11.493 62.474 -10.836 62.757 -9.996 62.757 C -8.789 62.757 -7.613 62.27 -6.466 61.297 C -5.326 60.33 -4.376 59.164 -3.616 57.797 C -2.856 56.43 -2.239 55.04 -1.766 53.627 C -1.293 52.207 -1.056 51.014 -1.056 50.047 C -1.056 47.707 -2.133 46.287 -4.286 45.787 C -4.313 45.687 -4.326 45.584 -4.326 45.477 C -4.326 45.164 -4.143 44.98 -3.776 44.927 C -1.756 44.927 0.041 44.17 1.614 42.657 C 3.194 41.15 3.984 39.414 3.984 37.447 C 3.984 36.34 3.577 35.364 2.764 34.517 C 1.951 33.664 0.441 33.237 -1.766 33.237 C -4.153 33.237 -6.083 33.89 -7.556 35.197 C -9.023 36.51 -9.756 38.007 -9.756 39.687 C -9.756 40.16 -9.666 40.594 -9.486 40.987 C -9.379 41.2 -9.326 41.37 -9.326 41.497 C -9.326 41.657 -9.403 41.737 -9.556 41.737 C -9.689 41.737 -9.809 41.71 -9.916 41.657 C -10.096 41.577 -10.319 41.474 -10.586 41.347 C -10.846 41.214 -11.193 40.884 -11.626 40.357 C -12.059 39.83 -12.276 39.254 -12.276 38.627 C -12.276 36.894 -11.213 35.404 -9.086 34.157 C -6.959 32.91 -4.389 32.287 -1.376 32.287 C -1.056 32.287 -0.693 32.3 -0.286 32.327 C 0.121 32.354 0.781 32.47 1.694 32.677 C 2.614 32.89 3.421 33.174 4.114 33.527 C 4.814 33.88 5.437 34.437 5.984 35.197 C 6.537 35.964 6.814 36.857 6.814 37.877 C 6.814 38.957 6.557 39.947 6.044 40.847 C 5.537 41.754 4.857 42.517 4.004 43.137 C 3.151 43.75 2.257 44.254 1.324 44.647 C 0.391 45.04 -0.573 45.344 -1.566 45.557 C -1.753 45.637 -1.846 45.714 -1.846 45.787 C -1.846 45.84 -1.766 45.907 -1.606 45.987 C -1.526 46.04 -1.409 46.107 -1.256 46.187 C -1.096 46.267 -0.826 46.477 -0.446 46.817 C -0.066 47.157 0.274 47.53 0.574 47.937 C 0.874 48.344 1.144 48.9 1.384 49.607 C 1.617 50.314 1.734 51.064 1.734 51.857 C 1.734 54.87 0.614 57.617 -1.626 60.097 C -3.873 62.577 -6.466 63.817 -9.406 63.817 ZM 12.448 60.277 C 10.268 62.27 8.771 63.267 7.958 63.267 C 7.591 63.267 7.408 63.057 7.408 62.637 C 7.408 62.11 7.638 61.31 8.098 60.237 C 8.551 59.164 9.015 58.22 9.488 57.407 L 10.198 56.187 C 10.305 56 10.358 55.88 10.358 55.827 C 10.358 55.774 10.331 55.747 10.278 55.747 C 10.171 55.747 9.975 55.894 9.688 56.187 C 8.901 57.054 8.001 57.977 6.988 58.957 C 5.981 59.944 5.161 60.71 4.528 61.257 L 3.628 62.047 C 2.601 62.834 1.815 63.227 1.268 63.227 C 0.688 63.227 0.398 62.78 0.398 61.887 C 0.398 61.44 0.521 60.76 0.768 59.847 C 1.021 58.927 1.211 58.31 1.338 57.997 C 1.945 56.524 2.701 55.094 3.608 53.707 C 4.515 52.314 5.585 50.98 6.818 49.707 C 8.051 48.434 9.488 47.404 11.128 46.617 C 12.768 45.83 14.465 45.437 16.218 45.437 C 17.691 45.437 18.428 45.66 18.428 46.107 C 18.428 46.367 18.098 46.497 17.438 46.497 C 15.025 46.497 12.761 47.527 10.648 49.587 C 8.541 51.647 6.831 54.017 5.518 56.697 C 5.151 57.43 4.968 58.047 4.968 58.547 C 4.968 58.834 5.058 58.977 5.238 58.977 C 5.551 58.977 5.958 58.754 6.458 58.307 C 6.771 58.02 7.198 57.64 7.738 57.167 C 8.278 56.694 9.151 55.787 10.358 54.447 C 11.565 53.114 12.521 51.867 13.228 50.707 C 13.335 50.5 13.498 50.254 13.718 49.967 C 13.945 49.674 14.371 49.287 14.998 48.807 C 15.631 48.32 16.261 48.077 16.888 48.077 C 17.235 48.077 17.408 48.167 17.408 48.347 C 17.408 48.4 17.368 48.494 17.288 48.627 C 17.181 48.834 16.885 49.357 16.398 50.197 C 15.911 51.037 15.458 51.83 15.038 52.577 C 14.618 53.33 14.171 54.144 13.698 55.017 C 13.231 55.897 12.858 56.654 12.578 57.287 C 12.305 57.914 12.168 58.334 12.168 58.547 C 12.168 58.7 12.235 58.777 12.368 58.777 C 12.761 58.777 13.718 58.017 15.238 56.497 C 16.391 55.29 17.741 53.807 19.288 52.047 C 19.368 51.967 19.435 51.927 19.488 51.927 C 19.541 51.927 19.568 51.98 19.568 52.087 C 19.568 52.587 19.371 53.074 18.978 53.547 C 16.405 56.407 14.228 58.65 12.448 60.277 ZM 28.742 58.937 C 25.669 61.824 23.649 63.267 22.682 63.267 C 22.236 63.267 22.012 63.03 22.012 62.557 C 22.012 62.27 22.076 61.91 22.202 61.477 C 22.336 61.044 22.499 60.61 22.692 60.177 C 22.892 59.744 23.086 59.344 23.272 58.977 C 23.452 58.61 23.636 58.27 23.822 57.957 C 24.002 57.644 24.092 57.474 24.092 57.447 C 24.486 56.734 25.076 55.74 25.862 54.467 C 26.649 53.194 27.279 52.144 27.752 51.317 C 28.226 50.49 28.462 49.987 28.462 49.807 C 28.462 49.674 28.396 49.607 28.262 49.607 L 27.712 49.807 C 26.506 50.674 25.062 52.017 23.382 53.837 C 21.702 55.664 20.326 57.274 19.252 58.667 L 17.642 60.707 C 17.296 61.207 16.992 61.614 16.732 61.927 C 16.472 62.247 16.099 62.557 15.612 62.857 C 15.126 63.157 14.632 63.307 14.132 63.307 C 13.766 63.307 13.582 63.204 13.582 62.997 C 13.582 62.784 13.832 62.174 14.332 61.167 C 14.832 60.154 15.332 59.187 15.832 58.267 L 16.572 56.927 L 20.432 50.157 C 20.826 49.504 21.149 49 21.402 48.647 C 21.649 48.294 21.996 47.847 22.442 47.307 C 22.889 46.767 23.369 46.367 23.882 46.107 C 24.389 45.84 24.932 45.684 25.512 45.637 C 25.719 45.637 25.822 45.727 25.822 45.907 C 25.822 46.067 25.786 46.2 25.712 46.307 C 25.106 47.247 24.179 48.807 22.932 50.987 C 21.686 53.167 20.892 54.584 20.552 55.237 C 20.472 55.397 20.432 55.517 20.432 55.597 C 20.432 55.644 20.459 55.667 20.512 55.667 C 20.566 55.667 20.696 55.59 20.902 55.437 C 21.402 54.857 22.052 54.134 22.852 53.267 C 23.652 52.4 25.012 51.097 26.932 49.357 C 28.846 47.61 30.419 46.434 31.652 45.827 C 31.939 45.7 32.216 45.637 32.482 45.637 C 32.849 45.637 33.032 45.847 33.032 46.267 C 32.819 47.5 31.809 49.61 30.002 52.597 C 28.009 55.877 27.012 57.82 27.012 58.427 C 27.012 58.634 27.102 58.737 27.282 58.737 C 27.416 58.737 27.566 58.694 27.732 58.607 C 27.906 58.514 28.096 58.38 28.302 58.207 C 28.516 58.04 28.696 57.89 28.842 57.757 C 28.982 57.624 29.172 57.447 29.412 57.227 C 29.646 57 29.789 56.864 29.842 56.817 C 30.942 55.71 32.399 54.12 34.212 52.047 C 34.292 51.967 34.359 51.927 34.412 51.927 C 34.459 51.927 34.482 51.98 34.482 52.087 C 34.482 52.587 34.286 53.074 33.892 53.547 C 31.952 55.7 30.236 57.497 28.742 58.937 ZM 39.721 56.187 C 39.827 55.974 39.881 55.827 39.881 55.747 L 39.481 56.027 C 38.667 56.974 37.731 57.944 36.671 58.937 C 35.611 59.937 34.751 60.71 34.091 61.257 L 33.111 62.047 C 32.031 62.834 31.217 63.227 30.671 63.227 C 30.144 63.227 29.881 62.847 29.881 62.087 C 29.881 60.2 30.577 57.97 31.971 55.397 C 33.357 52.824 35.161 50.567 37.381 48.627 C 39.594 46.68 41.701 45.707 43.701 45.707 C 44.094 45.707 44.427 45.754 44.701 45.847 C 44.974 45.94 45.171 46.027 45.291 46.107 C 45.411 46.187 45.484 46.227 45.511 46.227 C 45.564 46.227 45.627 46.187 45.701 46.107 C 45.861 45.894 46.064 45.63 46.311 45.317 C 46.564 45.004 46.991 44.577 47.591 44.037 C 48.197 43.497 48.684 43.227 49.051 43.227 C 49.237 43.227 49.331 43.36 49.331 43.627 C 49.331 43.994 49.144 44.544 48.771 45.277 C 45.964 50.45 44.261 53.574 43.661 54.647 C 43.447 55.04 42.967 55.887 42.221 57.187 C 41.474 58.487 40.944 59.414 40.631 59.967 C 42.284 58.627 43.647 57.47 44.721 56.497 C 45.874 55.29 47.224 53.807 48.771 52.047 C 48.851 51.967 48.917 51.927 48.971 51.927 C 49.024 51.927 49.051 51.98 49.051 52.087 C 49.051 52.587 48.854 53.074 48.461 53.547 C 47.307 54.807 46.311 55.884 45.471 56.777 C 44.364 57.93 42.394 59.61 39.561 61.817 L 38.541 63.697 C 33.474 73.017 29.984 79.08 28.071 81.887 C 27.884 82.174 27.647 82.52 27.361 82.927 C 27.074 83.334 26.601 83.887 25.941 84.587 C 25.287 85.28 24.764 85.627 24.371 85.627 C 23.737 85.627 23.421 84.724 23.421 82.917 C 23.421 80.237 24.381 77.324 26.301 74.177 C 28.321 70.844 31.467 67.417 35.741 63.897 L 39.721 56.187 M 44.961 47.007 C 44.987 46.98 45.001 46.93 45.001 46.857 C 45.001 46.67 44.791 46.577 44.371 46.577 C 43.317 46.577 41.964 47.39 40.311 49.017 C 38.657 50.644 37.227 52.43 36.021 54.377 C 34.814 56.317 34.211 57.747 34.211 58.667 C 34.211 59.034 34.367 59.217 34.681 59.217 C 34.974 59.217 35.341 59.034 35.781 58.667 C 36.174 58.32 36.707 57.84 37.381 57.227 C 38.047 56.607 39.194 55.287 40.821 53.267 C 42.447 51.247 43.827 49.16 44.961 47.007 M 27.281 74.097 C 27.074 74.41 26.824 74.824 26.531 75.337 C 26.244 75.844 25.851 76.72 25.351 77.967 C 24.851 79.214 24.601 80.257 24.601 81.097 C 24.601 81.544 24.681 81.767 24.841 81.767 C 24.974 81.767 25.171 81.644 25.431 81.397 C 25.691 81.15 25.914 80.894 26.101 80.627 L 26.381 80.237 C 28.581 76.824 31.361 72.007 34.721 65.787 C 31.414 68.647 28.934 71.417 27.281 74.097 ZM 56.495 43.587 C 58.355 42.274 60.025 40.784 61.505 39.117 C 62.992 37.45 64.122 35.917 64.895 34.517 C 65.668 33.11 66.252 31.894 66.645 30.867 C 67.038 29.847 67.235 29.114 67.235 28.667 C 67.235 28.407 67.145 28.277 66.965 28.277 C 66.598 28.277 66.152 28.537 65.625 29.057 C 64.625 30.057 63.495 31.5 62.235 33.387 C 60.975 35.28 59.958 36.904 59.185 38.257 C 58.412 39.604 57.408 41.407 56.175 43.667 C 56.282 43.667 56.388 43.64 56.495 43.587 M 52.275 56.817 C 53.382 55.71 54.838 54.12 56.645 52.047 C 56.725 51.967 56.792 51.927 56.845 51.927 C 56.898 51.927 56.925 51.98 56.925 52.087 C 56.925 52.587 56.728 53.074 56.335 53.547 C 54.388 55.7 52.668 57.497 51.175 58.937 C 47.895 62.037 45.808 63.587 44.915 63.587 C 44.522 63.587 44.325 63.31 44.325 62.757 C 44.325 62.47 44.358 62.157 44.425 61.817 C 44.492 61.47 44.602 61.094 44.755 60.687 C 44.915 60.28 45.055 59.94 45.175 59.667 C 45.288 59.394 45.458 59 45.685 58.487 C 45.905 57.974 46.055 57.627 46.135 57.447 C 46.868 55.794 49.125 51.437 52.905 44.377 C 58.078 34.95 62.828 29.164 67.155 27.017 C 67.788 26.697 68.418 26.537 69.045 26.537 C 69.785 26.537 70.155 26.88 70.155 27.567 C 70.155 29.14 69.615 30.864 68.535 32.737 C 67.462 34.617 66.148 36.344 64.595 37.917 C 63.048 39.49 61.535 40.867 60.055 42.047 C 58.568 43.234 57.288 44.127 56.215 44.727 C 56.055 44.78 55.912 44.897 55.785 45.077 C 54.625 46.944 53.495 48.947 52.395 51.087 C 51.295 53.227 50.468 54.914 49.915 56.147 L 49.125 57.957 C 48.998 58.35 48.935 58.61 48.935 58.737 C 48.935 58.977 49.025 59.097 49.205 59.097 C 49.732 59.097 50.755 58.337 52.275 56.817 ZM 64.368 60.277 C 62.188 62.27 60.691 63.267 59.878 63.267 C 59.511 63.267 59.328 63.057 59.328 62.637 C 59.328 62.11 59.558 61.31 60.018 60.237 C 60.471 59.164 60.934 58.22 61.408 57.407 L 62.118 56.187 C 62.224 56 62.278 55.88 62.278 55.827 C 62.278 55.774 62.251 55.747 62.198 55.747 C 62.091 55.747 61.894 55.894 61.608 56.187 C 60.821 57.054 59.921 57.977 58.908 58.957 C 57.901 59.944 57.081 60.71 56.448 61.257 L 55.548 62.047 C 54.521 62.834 53.734 63.227 53.188 63.227 C 52.608 63.227 52.318 62.78 52.318 61.887 C 52.318 61.44 52.441 60.76 52.688 59.847 C 52.941 58.927 53.131 58.31 53.258 57.997 C 53.864 56.524 54.621 55.094 55.528 53.707 C 56.434 52.314 57.504 50.98 58.738 49.707 C 59.971 48.434 61.408 47.404 63.048 46.617 C 64.688 45.83 66.384 45.437 68.138 45.437 C 69.611 45.437 70.348 45.66 70.348 46.107 C 70.348 46.367 70.018 46.497 69.358 46.497 C 66.944 46.497 64.681 47.527 62.568 49.587 C 60.461 51.647 58.751 54.017 57.438 56.697 C 57.071 57.43 56.888 58.047 56.888 58.547 C 56.888 58.834 56.978 58.977 57.158 58.977 C 57.471 58.977 57.878 58.754 58.378 58.307 C 58.691 58.02 59.118 57.64 59.658 57.167 C 60.198 56.694 61.071 55.787 62.278 54.447 C 63.484 53.114 64.441 51.867 65.148 50.707 C 65.254 50.5 65.418 50.254 65.638 49.967 C 65.864 49.674 66.291 49.287 66.918 48.807 C 67.551 48.32 68.181 48.077 68.808 48.077 C 69.154 48.077 69.328 48.167 69.328 48.347 C 69.328 48.4 69.288 48.494 69.208 48.627 C 69.101 48.834 68.804 49.357 68.318 50.197 C 67.831 51.037 67.378 51.83 66.958 52.577 C 66.538 53.33 66.091 54.144 65.618 55.017 C 65.151 55.897 64.778 56.654 64.498 57.287 C 64.224 57.914 64.088 58.334 64.088 58.547 C 64.088 58.7 64.154 58.777 64.288 58.777 C 64.681 58.777 65.638 58.017 67.158 56.497 C 68.311 55.29 69.661 53.807 71.208 52.047 C 71.288 51.967 71.354 51.927 71.408 51.927 C 71.461 51.927 71.488 51.98 71.488 52.087 C 71.488 52.587 71.291 53.074 70.898 53.547 C 68.324 56.407 66.148 58.65 64.368 60.277 Z" transform="matrix(1.1838129758834839, 0, 0, 0.9201210737228394, 27.433374404907227, 65.24493408203125)" style="fill: rgb(73, 73, 73);"/>
  <path d="M 128.8 115.958 C 127.382 117.675 126.076 119.173 124.882 120.453 C 123.68 121.724 122.833 122.574 122.343 123.003 L 121.609 123.609 C 121.196 123.937 120.874 124.102 120.642 124.102 C 120.359 124.102 120.217 123.874 120.217 123.42 C 120.217 122.334 120.81 119.922 121.995 116.185 L 121.763 116.298 C 120.449 117.889 119.215 119.3 118.065 120.528 C 116.922 121.749 116.106 122.574 115.616 123.003 L 114.882 123.609 C 114.469 123.937 114.147 124.102 113.915 124.102 C 113.631 124.102 113.49 123.874 113.49 123.42 C 113.49 122.157 114.057 119.843 115.191 116.475 C 116.325 113.1 117.433 110.415 118.516 108.42 C 118.799 107.889 119.212 107.435 119.753 107.056 C 120.294 106.677 120.874 106.488 121.493 106.488 C 121.673 106.488 121.763 106.563 121.763 106.715 C 121.763 106.866 121.66 107.144 121.454 107.548 C 120.732 109.013 119.843 111.13 118.786 113.899 C 117.73 116.661 117.201 118.571 117.201 119.632 C 117.201 119.758 117.227 119.821 117.278 119.821 C 117.382 119.821 117.562 119.682 117.82 119.405 C 118.129 119.127 118.529 118.748 119.018 118.268 C 119.508 117.788 120.255 116.939 121.261 115.718 C 122.266 114.489 122.975 113.407 123.387 112.473 L 125.243 108.42 C 125.655 107.763 126.123 107.279 126.647 106.967 C 127.18 106.648 127.653 106.488 128.065 106.488 C 128.374 106.488 128.529 106.563 128.529 106.715 C 128.529 106.816 128.413 107.094 128.181 107.548 C 125.939 112.119 124.534 116.021 123.967 119.253 C 123.941 119.354 123.928 119.455 123.928 119.556 C 123.928 119.708 123.967 119.783 124.044 119.783 C 124.225 119.783 124.869 119.199 125.977 118.028 C 127.086 116.85 127.833 115.958 128.22 115.351 C 128.271 115.25 128.297 115.149 128.297 115.048 C 128.194 114.821 128.142 114.518 128.142 114.139 C 128.142 112.624 128.925 110.941 130.488 109.089 C 132.043 107.229 133.619 106.008 135.217 105.427 C 135.372 105.377 135.475 105.351 135.527 105.351 C 135.681 105.351 135.759 105.414 135.759 105.541 C 135.733 106.248 133.787 109.291 129.921 114.67 C 129.843 114.771 129.805 114.846 129.805 114.897 C 129.805 114.998 129.843 115.061 129.921 115.086 C 130.23 115.238 130.539 115.314 130.849 115.314 C 132.008 115.314 133.4 114.367 135.024 112.473 C 135.076 112.422 135.114 112.397 135.14 112.397 C 135.269 112.397 135.333 112.536 135.333 112.814 C 135.333 113.091 135.024 113.571 134.405 114.253 C 133.271 115.516 131.97 116.147 130.501 116.147 C 129.985 116.147 129.483 116.046 128.993 115.844 L 128.8 115.958 Z M 141.672 110.238 C 141.982 109.606 142.136 109.051 142.136 108.571 C 142.136 108.167 142.008 107.965 141.75 107.965 C 141.595 107.965 141.419 108.007 141.221 108.091 C 141.032 108.183 140.886 108.281 140.783 108.382 L 140.59 108.533 C 139.791 109.215 138.79 110.461 137.587 112.271 C 136.393 114.072 135.796 115.225 135.796 115.73 C 135.796 115.831 135.822 115.882 135.873 115.882 C 136.028 115.882 136.367 115.756 136.891 115.503 C 137.424 115.25 138.184 114.657 139.172 113.723 C 140.169 112.788 141.002 111.627 141.672 110.238 M 139.933 118.912 C 141.299 117.675 143.258 115.629 145.809 112.776 C 145.887 112.7 145.951 112.662 146.002 112.662 C 146.054 112.662 146.08 112.713 146.08 112.814 C 146.08 113.293 145.887 113.761 145.5 114.215 C 143.593 116.286 141.904 118.016 140.435 119.405 C 139.353 120.465 138.064 121.484 136.569 122.46 C 135.074 123.429 133.837 123.912 132.858 123.912 C 131.672 123.912 131.079 123.104 131.079 121.488 C 131.079 118.811 132.088 116.008 134.108 113.079 C 136.135 110.149 138.476 108.167 141.131 107.132 C 142.239 106.677 143.245 106.45 144.147 106.45 C 145.152 106.45 145.655 106.841 145.655 107.624 C 145.655 109.089 144.598 110.768 142.484 112.662 C 140.371 114.556 138 115.995 135.371 116.98 C 135.268 117.006 135.177 117.094 135.1 117.245 C 134.713 118.281 134.52 119.203 134.52 120.011 C 134.52 120.92 134.868 121.374 135.564 121.374 C 136.672 121.374 138.128 120.554 139.933 118.912 Z M 143.411 123.761 C 142.973 123.761 142.56 123.723 142.174 123.647 C 141.787 123.571 141.504 123.508 141.323 123.458 L 141.053 123.344 C 140.872 123.293 140.782 123.192 140.782 123.041 L 140.859 122.814 C 142.973 117.864 145.859 112.296 149.519 106.109 C 149.571 106.008 150.022 105.238 150.873 103.798 C 151.723 102.359 152.264 101.441 152.496 101.046 C 152.728 100.658 153.231 99.842 154.004 98.596 C 154.777 97.342 155.383 96.378 155.821 95.705 C 156.259 95.039 156.813 94.215 157.484 93.23 C 158.154 92.245 158.798 91.361 159.417 90.578 C 160.216 89.594 160.77 89.101 161.079 89.101 C 161.208 89.101 161.272 89.202 161.272 89.404 C 161.272 89.859 160.834 90.932 159.958 92.624 C 158.669 95.301 157.174 98.078 155.473 100.957 C 152.097 106.715 149.983 110.351 149.133 111.867 L 149.133 112.018 C 149.133 112.144 149.159 112.207 149.21 112.207 C 149.236 112.207 149.313 112.144 149.442 112.018 C 149.777 111.589 150.224 111.058 150.782 110.427 C 151.333 109.796 152.251 108.95 153.54 107.889 C 154.829 106.829 155.873 106.298 156.672 106.298 C 157.316 106.298 157.638 106.791 157.638 107.776 C 157.638 109.316 157.11 111.122 156.053 113.192 C 155.435 114.404 154.7 115.595 153.849 116.766 C 152.999 117.944 152.032 119.072 150.95 120.149 C 149.867 121.219 148.669 122.085 147.354 122.751 C 146.04 123.424 144.725 123.761 143.411 123.761 M 153.656 111.26 C 153.965 110.528 154.12 109.985 154.12 109.632 C 154.12 109.303 153.991 109.139 153.733 109.139 C 153.527 109.139 153.223 109.291 152.818 109.594 C 152.424 109.897 152.084 110.2 151.8 110.503 L 151.336 110.957 C 149.816 112.7 148.45 114.527 147.238 116.437 C 146.027 118.34 145.202 119.809 144.764 120.844 L 144.068 122.397 C 144.017 122.473 143.991 122.549 143.991 122.624 C 143.991 122.751 144.184 122.814 144.571 122.814 C 145.705 122.814 147.122 121.769 148.823 119.682 C 150.525 117.603 152.135 114.796 153.656 111.26 Z M 164.017 118.761 C 163.553 119.998 162.819 121.042 161.814 121.892 C 160.808 122.734 159.872 123.306 159.004 123.609 C 158.145 123.912 157.368 124.064 156.672 124.064 C 154.79 124.064 153.849 123.344 153.849 121.905 C 153.849 120.44 154.674 119.114 156.324 117.927 C 157.097 117.372 157.935 117.006 158.837 116.829 C 158.966 116.829 159.03 116.879 159.03 116.98 C 159.03 117.031 159.004 117.081 158.953 117.132 C 158.308 117.612 157.694 118.357 157.11 119.367 C 156.534 120.377 156.246 121.261 156.246 122.018 C 156.246 122.776 156.569 123.155 157.213 123.155 C 157.728 123.155 158.235 122.949 158.734 122.536 C 159.24 122.115 159.623 121.69 159.881 121.261 L 160.267 120.655 C 160.783 119.846 161.212 118.559 161.556 116.791 C 161.908 115.023 162.136 113.457 162.239 112.094 L 162.355 110.048 C 162.355 109.846 162.316 109.745 162.239 109.745 L 162.084 109.821 L 158.257 114.215 C 157.973 114.543 157.78 114.708 157.677 114.708 C 157.548 114.708 157.484 114.619 157.484 114.442 C 157.484 114.114 157.574 113.862 157.754 113.685 L 158.102 113.268 C 161.04 110.036 162.716 108.079 163.128 107.397 C 163.515 106.816 164.082 106.311 164.829 105.882 C 165.551 105.478 166.401 105.276 167.381 105.276 C 167.639 105.276 167.767 105.377 167.767 105.579 C 167.767 105.705 167.664 105.818 167.458 105.919 C 167.381 105.945 167.286 105.999 167.175 106.084 C 167.054 106.176 166.843 106.387 166.543 106.715 C 166.251 107.043 165.989 107.422 165.757 107.851 C 165.525 108.281 165.319 108.883 165.139 109.657 C 164.958 110.423 164.868 111.273 164.868 112.207 C 164.868 115.112 164.584 117.296 164.017 118.761 Z" style="fill: rgb(73, 73, 73);" bx:origin="0.5 0.5"/>
</svg>