<?xml version="1.0" encoding="utf-8"?>
<svg id="Layer_1" x="0px" y="0px" viewBox="5 -4 123 138" xmlns="http://www.w3.org/2000/svg" xmlns:bx="https://boxy-svg.com">
  <g transform="matrix(0.778605, 0, 0, 0.764503, 12.048947, -6.504752)">
    <g>
      <path d="M80,107.6c2.4,1,4.8,2.1,7.1,3.2c-0.6,0.4-1.8,1.3-2.3,1.7c-2.1-0.8-4.2-1.7-6.3-2.5&#10;&#9;&#9;&#9;C79,109.3,79.5,108.5,80,107.6z" style="fill: none;"/>
      <path d="M39.3,72.1c-0.2-0.5-0.5-1-0.8-1.6l-1-0.3l-1.1-0.4l-0.2-0.1c-4,3.2-7.5,7.2-10.1,11.7&#10;&#9;&#9;&#9;c1.1,0.5,2.1,1.2,3.1,1.9C31.8,79,35.2,75.2,39.3,72.1z" style="fill: rgb(126, 139, 170);"/>
      <path d="M63,60.3c-2,0-3.9,0.1-5.8,0.4l-0.1,0.1c-0.9,0.9-0.8,1.7,0,3.6C59.1,64.2,61,64,63,64&#10;&#9;&#9;&#9;c21.6,0,39.1,17.5,39.1,39.1c0,21.6-17.5,39.1-39.1,39.1c-21.6,0-39.1-17.5-39.1-39.1c0-2.5,0.3-5,0.7-7.4c-1.2-0.1-2.5-0.4-3.5-1&#10;&#9;&#9;&#9;c-0.5,2.7-0.8,5.6-0.8,8.5c0,23.6,19.1,42.7,42.7,42.7c23.6,0,42.7-19.1,42.7-42.7C105.8,79.5,86.6,60.3,63,60.3z" style="fill: rgb(126, 139, 170);"/>
      <path d="M41.6,113.3c2.3-1.1,4.5-2.1,6.8-3.2c0,0.8,0.1,2.4,0.2,3.1c-2,0.8-4,1.6-6,2.5&#10;&#9;&#9;&#9;C42.2,114.9,41.9,114.1,41.6,113.3z" style="fill: rgb(255, 255, 255);"/>
      <path d="M56,66.7c-1.1-2.4-2.8-5-0.4-7.2c-1.1-2.8-2.3-5.5-3.7-8.2c-5,0.9-9.3,3.7-13.9,5.6&#10;&#9;&#9;&#9;c-1.6,0.9-3.8,1.3-4.7,3.1c0.4,2.9,1.9,5.5,3.2,8.1c0.7,0.2,2.1,0.7,2.9,0.9c0.7,1.5,1.4,3,2.2,4.5C45.8,70,50.8,67.9,56,66.7z" style="fill: rgb(157, 208, 140);"/>
      <path d="M42.2,130.6c8.8,7.1,21.2,9.5,31.9,5.8c11.6-3.7,20.8-14,23-26c3-14.2-4.5-29.9-17.4-36.5&#10;&#9;&#9;&#9;c-7.3-3.8-16-5.3-24-3.1C42.5,73.7,32,85.1,29.9,98.4C27.7,110.3,32.7,123.2,42.2,130.6z M36.3,111.7&#10;&#9;&#9;&#9;c-4.5-14.4,4.8-30.9,19.2-34.9c15.2-4.9,32.8,5.7,35.7,21.4c3.2,14.3-6.6,29.9-20.9,33.2C56.1,135.4,40,126,36.3,111.7z" style="fill: rgb(157, 208, 140);"/>
      <path d="M69.3,86.8c4,1.8,4-3.9,5-6.4C70.8,77.7,70.4,84.7,69.3,86.8z" style="fill: rgb(157, 208, 140);"/>
      <path d="M54.3,80.6c-0.7,0.6-1.5,1.3-2.2,1.9c1,2,2,4,2.9,6.1c0.9-0.2,1.7-0.5,2.6-0.7&#10;&#9;&#9;&#9;C56.5,85.4,55.4,83,54.3,80.6z" style="fill: rgb(157, 208, 140);"/>
      <path d="M28,94.2c0.8-2.2,1.7-4.4,2.8-6.6c-1.7-2-3.6-3.6-6-4.7c-1.5,2.8-3.4,5.6-4.1,8.8&#10;&#9;&#9;&#9;C21.9,94.5,25.6,93.7,28,94.2z" style="fill: rgb(157, 208, 140);"/>
      <path d="M80.1,95.5c0.2,0.9,0.4,1.8,0.6,2.7c2.1-0.9,4.2-1.8,6.3-2.7c-0.1-0.7-0.3-2.2-0.3-3&#10;&#9;&#9;&#9;C84.5,93.5,82.3,94.5,80.1,95.5z" style="fill: rgb(157, 208, 140);"/>
      <path d="M40.2,96c2.1,0.8,4.2,1.7,6.3,2.5c0.6-0.4,1.8-1.3,2.3-1.7c-2.3-1.2-4.7-2.3-7.1-3.2&#10;&#9;&#9;&#9;C41.2,94.4,40.7,95.2,40.2,96z" style="fill: rgb(157, 208, 140);"/>
      <path d="M87.1,110.9c-2.3-1.2-4.7-2.3-7.1-3.2c-0.5,0.8-1,1.6-1.5,2.5c2.1,0.8,4.2,1.7,6.3,2.5&#10;&#9;&#9;&#9;C85.3,112.2,86.5,111.3,87.1,110.9z" style="fill: rgb(157, 208, 140);"/>
      <path d="M48.6,113.2c0-0.8-0.1-2.4-0.2-3.1c-2.3,1.1-4.5,2.1-6.8,3.2c0.3,0.8,0.6,1.6,1,2.4&#10;&#9;&#9;&#9;C44.6,114.9,46.6,114.1,48.6,113.2z" style="fill: rgb(157, 208, 140);"/>
      <path d="M58.6,118.3c-0.7-0.1-2.1-0.3-2.7-0.4c-0.8,2.5-1.5,5-2.1,7.5C57.6,125.5,57.6,121,58.6,118.3z" style="fill: rgb(157, 208, 140);"/>
      <path d="M69.9,120.9c1,2.1,2,4.2,3,6.3c0.8-0.4,1.7-0.7,2.5-1c-1.1-2.4-2.2-4.8-3.3-7.1&#10;&#9;&#9;&#9;C71.5,119.5,70.4,120.4,69.9,120.9z" style="fill: rgb(157, 208, 140);"/>
      <path d="M64.3,107c2.1,0,3.9-1.7,3.9-3.9c0-0.8-0.3-1.6-0.7-2.2c-0.7-1-1.9-1.7-3.2-1.7c-2.1,0-3.9,1.7-3.9,3.9&#10;&#9;&#9;&#9;l0,0C60.4,105.2,62.2,107,64.3,107z" style="fill: rgb(157, 208, 140);"/>
    </g>
    <g>
      <path d="M98,3c26.5,44.9,16.3,61.7,16.3,61.7C88.9,47.4,59.4,48.7,59.4,48.7c18.8,6.5,38.7,14.2,48.7,35.9&#10;&#9;&#9;&#9;c11.4,24.7-9.5,53.4-9.5,53.4C169.2,69.2,98,3,98,3z" style="fill: rgb(157, 208, 140);"/>
      <path d="M102.6,55.6c4.8,1,9.5-2,10.6-6.8c1-4.8-2-9.5-6.8-10.6c-4.8-1-9.5,2-10.6,6.8&#10;&#9;&#9;&#9;C94.8,49.8,97.8,54.6,102.6,55.6z" style="fill: rgb(157, 208, 140);"/>
    </g>
  </g>
  <path d="M 9.908 120.293 C 9.908 120.08 9.928 119.909 9.967 119.776 C 10.013 119.632 10.066 119.498 10.124 119.38 C 10.18 119.246 10.228 119.115 10.268 118.981 C 10.314 118.862 10.34 118.71 10.34 118.525 C 10.34 117.823 10.306 117.127 10.238 116.439 C 10.172 115.748 10.099 115.053 10.024 114.35 C 9.948 113.662 9.876 112.976 9.808 112.285 C 9.742 111.595 9.708 110.901 9.708 110.198 C 9.708 109.707 9.769 109.369 9.895 109.185 C 10.02 109 10.268 108.907 10.641 108.907 C 10.927 108.907 11.167 109.006 11.357 109.204 C 11.548 109.404 11.733 109.656 11.917 109.96 L 12.046 109.96 C 12.16 109.867 12.38 109.696 12.705 109.443 C 13.02 109.179 13.359 108.907 13.722 108.628 C 14.087 108.35 14.429 108.093 14.754 107.854 C 15.081 107.601 15.31 107.417 15.443 107.297 C 15.731 107.1 16.006 106.925 16.276 106.781 C 16.551 106.636 16.848 106.562 17.164 106.562 C 17.335 106.562 17.461 106.601 17.537 106.68 C 17.624 106.747 17.666 106.933 17.666 107.237 L 17.666 107.297 C 17.599 107.774 17.483 108.157 17.323 108.45 C 17.15 108.728 16.95 108.972 16.719 109.185 C 16.501 109.398 16.265 109.583 16.017 109.742 C 15.777 109.887 15.548 110.053 15.328 110.238 C 14.823 110.729 14.396 111.126 14.053 111.431 C 13.709 111.735 13.413 111.981 13.162 112.166 C 12.924 112.35 12.735 112.504 12.591 112.623 C 12.447 112.755 12.331 112.894 12.247 113.039 C 12.247 113.105 12.241 113.239 12.232 113.438 C 12.222 113.635 12.217 113.756 12.217 113.795 C 12.217 114.498 12.229 115.199 12.247 115.901 C 12.263 116.604 12.366 117.278 12.548 117.928 L 18.425 114.073 C 18.541 114.008 18.625 113.969 18.683 113.954 C 18.751 113.941 18.842 113.934 18.957 113.934 C 19.023 113.934 19.132 113.973 19.285 114.054 C 19.429 114.118 19.501 114.212 19.501 114.331 C 19.501 114.861 19.372 115.34 19.114 115.763 C 18.855 116.174 18.541 116.558 18.168 116.915 C 17.804 117.259 17.418 117.557 17.008 117.809 C 16.605 118.073 16.257 118.312 15.96 118.525 C 15.892 118.564 15.817 118.599 15.731 118.623 C 15.645 118.65 15.587 118.71 15.557 118.803 L 12.906 120.712 C 12.82 120.79 12.773 120.856 12.761 120.909 C 12.754 120.963 12.747 121.048 12.747 121.167 C 12.747 121.221 12.754 121.281 12.761 121.346 C 12.773 121.412 12.777 121.459 12.777 121.486 L 13.306 127.208 C 13.355 127.779 13.26 128.222 13.02 128.54 C 12.773 128.871 12.472 129.037 12.118 129.037 C 12.05 129.037 11.97 129.017 11.874 128.976 C 11.769 128.937 11.669 128.891 11.573 128.838 C 11.468 128.784 11.376 128.705 11.3 128.599 C 11.224 128.494 11.182 128.367 11.171 128.222 L 10.539 121.346 C 10.539 121.254 10.508 121.174 10.439 121.108 C 10.37 121.029 10.301 120.955 10.225 120.889 C 10.15 120.824 10.077 120.744 10.009 120.651 C 9.94 120.558 9.908 120.437 9.908 120.293 Z M 26.262 119.26 C 26.109 119.632 25.936 120.075 25.745 120.591 C 25.554 121.121 25.347 121.684 25.128 122.28 C 24.909 122.862 24.67 123.453 24.412 124.049 C 24.153 124.644 23.886 125.187 23.609 125.679 C 23.33 126.169 23.04 126.578 22.736 126.911 C 22.427 127.254 22.119 127.461 21.803 127.526 C 21.669 127.526 21.516 127.512 21.343 127.487 C 21.179 127.447 21.014 127.388 20.842 127.307 C 20.669 127.229 20.531 127.11 20.426 126.95 C 20.321 126.805 20.269 126.599 20.269 126.334 C 20.276 123.964 20.401 121.804 20.641 119.856 C 20.878 117.922 21.247 116.213 21.746 114.73 C 22.252 113.245 22.9 112.013 23.695 111.032 C 24.479 110.065 25.435 109.369 26.563 108.946 C 26.6 108.946 26.663 108.939 26.75 108.926 C 26.843 108.914 26.906 108.907 26.936 108.907 C 27.442 108.88 27.812 109.204 28.04 109.88 C 28.268 110.542 28.436 111.589 28.542 113.019 C 28.656 114.452 28.732 116.294 28.771 118.545 C 28.808 120.783 28.893 123.473 29.03 126.612 C 29.087 126.877 29.118 127.103 29.13 127.288 C 29.13 127.473 29.13 127.691 29.13 127.944 C 29.13 128.3 29.057 128.565 28.913 128.738 C 28.761 128.913 28.565 128.998 28.327 128.998 C 27.838 128.998 27.496 128.811 27.293 128.441 C 27.093 128.068 26.959 127.566 26.894 126.93 C 26.894 126.916 26.879 126.732 26.849 126.374 C 26.83 126.031 26.795 125.633 26.75 125.182 C 26.71 124.718 26.673 124.253 26.634 123.791 C 26.606 123.327 26.582 122.942 26.563 122.638 L 26.563 122.499 C 26.534 122.261 26.514 121.969 26.505 121.624 C 26.495 121.281 26.47 120.944 26.434 120.61 C 26.406 120.214 26.381 119.817 26.361 119.419 L 26.262 119.26 M 25.702 112.344 C 25.252 112.807 24.808 113.431 24.369 114.212 C 23.928 115.007 23.619 115.776 23.437 116.517 C 23.35 116.875 23.26 117.358 23.164 117.968 C 23.059 118.564 22.968 119.161 22.892 119.757 C 22.814 120.352 22.751 120.902 22.706 121.407 C 22.656 121.896 22.634 122.215 22.634 122.361 C 22.652 122.361 22.67 122.334 22.691 122.28 C 22.721 122.241 22.743 122.207 22.763 122.181 C 23.805 120.79 24.536 119.286 24.957 117.669 C 25.387 116.041 25.635 114.265 25.702 112.344 Z M 33.252 127.666 C 33.252 127.546 33.257 127.441 33.266 127.349 C 33.275 127.254 33.313 127.162 33.381 127.07 C 33.582 126.726 33.807 126.359 34.055 125.975 C 34.303 125.594 34.547 125.208 34.785 124.824 C 35.025 124.44 35.244 124.034 35.445 123.611 C 35.646 123.2 35.814 122.784 35.947 122.361 L 35.947 122.142 L 32.649 123.095 L 32.262 123.095 C 32.033 123.095 31.747 123.069 31.401 123.016 C 31.058 122.976 30.72 122.876 30.384 122.718 C 30.061 122.572 29.781 122.361 29.553 122.082 C 29.333 121.804 29.223 121.431 29.223 120.969 C 29.232 120.426 29.433 119.83 29.825 119.18 C 30.209 118.531 30.662 117.889 31.187 117.253 C 31.703 116.631 32.229 116.047 32.763 115.505 C 33.29 114.973 33.711 114.557 34.026 114.252 C 34.38 113.973 34.8 113.75 35.288 113.576 C 35.775 113.403 36.221 113.318 36.621 113.318 C 36.964 113.318 37.261 113.403 37.509 113.576 C 37.76 113.75 37.882 114.094 37.882 114.61 C 37.882 114.822 37.875 115.022 37.854 115.206 C 37.824 115.39 37.721 115.518 37.539 115.583 C 36.994 115.518 36.488 115.57 36.019 115.743 C 35.552 115.914 35.106 116.174 34.686 116.517 C 34.265 116.875 33.868 117.292 33.496 117.77 C 33.133 118.246 32.775 118.744 32.421 119.26 C 32.314 119.419 32.185 119.644 32.033 119.936 C 31.889 120.226 31.816 120.393 31.816 120.433 L 31.816 120.472 C 32.247 120.472 32.678 120.413 33.108 120.293 C 33.537 120.187 33.967 120.068 34.398 119.936 C 34.828 119.803 35.254 119.676 35.674 119.557 C 36.104 119.452 36.549 119.399 37.009 119.399 C 37.171 119.399 37.352 119.413 37.554 119.44 C 37.764 119.479 37.953 119.557 38.126 119.676 C 38.3 119.782 38.442 119.936 38.556 120.134 C 38.663 120.332 38.715 120.585 38.715 120.889 C 38.715 121.34 38.639 121.765 38.483 122.161 C 38.323 122.572 38.082 123.061 37.768 123.631 C 37.463 124.202 37.072 124.897 36.591 125.719 C 36.115 126.527 35.547 127.572 34.885 128.857 C 34.858 128.924 34.779 128.971 34.641 128.998 C 34.52 129.022 34.412 129.037 34.327 129.037 C 34.097 129.037 33.86 128.898 33.61 128.619 C 33.373 128.342 33.252 128.023 33.252 127.666 Z M 41.627 118.803 C 41.398 118.803 41.188 118.883 40.998 119.042 C 40.815 119.2 40.599 119.279 40.351 119.279 C 40.313 119.279 40.222 119.275 40.08 119.26 C 39.936 119.26 39.85 119.26 39.822 119.26 C 39.754 119.141 39.677 119.046 39.593 118.981 C 39.505 118.902 39.42 118.823 39.334 118.744 C 39.247 118.664 39.176 118.564 39.118 118.445 C 39.06 118.326 39.034 118.168 39.034 117.968 C 39.034 117.611 39.132 117.319 39.334 117.094 C 39.533 116.882 39.769 116.69 40.035 116.517 C 40.313 116.358 40.592 116.213 40.868 116.081 C 41.146 115.936 41.365 115.768 41.527 115.583 L 41.527 114.054 C 41.527 112.331 41.471 110.602 41.356 108.868 C 41.241 107.132 41.185 105.41 41.185 103.7 C 41.185 103.236 41.266 102.939 41.428 102.806 C 41.6 102.662 41.828 102.587 42.115 102.587 C 42.448 102.587 42.693 102.721 42.846 102.985 C 43.009 103.263 43.122 103.594 43.191 103.978 C 43.257 104.362 43.291 104.768 43.291 105.191 C 43.291 105.627 43.302 105.991 43.321 106.283 C 43.321 106.589 43.333 107.124 43.363 107.893 C 43.401 108.662 43.439 109.477 43.476 110.337 C 43.507 111.198 43.538 112.013 43.577 112.782 C 43.607 113.55 43.63 114.087 43.649 114.392 C 43.717 114.365 43.845 114.306 44.036 114.212 C 44.226 114.107 44.434 114 44.654 113.895 C 44.874 113.789 45.08 113.691 45.27 113.596 C 45.461 113.504 45.599 113.431 45.686 113.378 C 46.124 113.124 46.58 112.842 47.049 112.523 C 47.517 112.205 47.994 112.046 48.481 112.046 C 48.815 112.046 49.074 112.205 49.257 112.523 C 49.428 112.842 49.514 113.212 49.514 113.635 C 49.514 113.927 49.432 114.146 49.269 114.292 C 49.098 114.437 48.923 114.564 48.739 114.669 L 44.15 117.055 C 44.102 117.094 44.052 117.134 43.995 117.173 C 43.946 117.213 43.897 117.266 43.85 117.332 L 43.85 118.445 C 43.85 119.265 43.865 120.114 43.892 120.989 C 43.912 121.85 43.965 122.692 44.052 123.513 C 44.137 124.214 44.226 124.903 44.323 125.579 C 44.429 126.254 44.482 126.937 44.482 127.626 C 44.482 127.838 44.429 128.123 44.323 128.48 C 44.226 128.825 44.07 128.998 43.85 128.998 C 43.391 128.998 43.023 128.811 42.746 128.441 C 42.46 128.068 42.297 127.566 42.259 126.93 C 42.172 125.724 42.087 124.401 42.001 122.956 C 41.903 121.512 41.814 120.128 41.73 118.803 L 41.627 118.803 Z M 48.34 127.487 C 48.302 126.651 48.244 125.533 48.167 124.129 C 48.091 122.712 48.01 121.247 47.922 119.737 C 47.826 118.226 47.727 116.796 47.622 115.445 C 47.526 114.094 47.446 113.046 47.377 112.304 C 47.377 112.001 47.48 111.802 47.678 111.708 C 47.881 111.616 48.071 111.57 48.254 111.57 C 48.493 111.57 48.74 111.663 49 111.848 C 49.258 112.032 49.419 112.29 49.487 112.623 C 49.487 112.716 49.495 112.881 49.515 113.12 C 49.534 113.372 49.548 113.622 49.558 113.875 C 49.568 114.127 49.578 114.377 49.586 114.629 C 49.605 114.868 49.616 115.033 49.616 115.126 C 49.616 115.272 49.616 115.379 49.616 115.445 C 49.616 115.51 49.616 115.576 49.616 115.643 C 49.616 115.697 49.624 115.756 49.644 115.822 C 49.663 115.901 49.688 116.02 49.715 116.179 C 49.755 116.125 49.792 116.066 49.83 116.001 C 49.878 115.936 49.906 115.889 49.917 115.862 C 50.184 115.332 50.447 114.861 50.706 114.452 C 50.953 114.039 51.211 113.656 51.479 113.297 C 51.749 112.94 52.05 112.557 52.384 112.146 C 52.709 111.735 53.089 111.264 53.53 110.736 C 53.627 110.615 53.698 110.522 53.744 110.457 C 53.802 110.403 53.85 110.357 53.888 110.317 C 53.935 110.292 53.984 110.271 54.033 110.257 C 54.079 110.244 54.147 110.238 54.232 110.238 C 54.52 110.238 54.809 110.372 55.107 110.636 C 55.393 110.901 55.537 111.271 55.537 111.748 C 55.537 111.908 55.495 112.071 55.408 112.246 C 55.332 112.419 55.233 112.582 55.107 112.743 C 54.993 112.888 54.874 113.019 54.749 113.139 C 54.624 113.258 54.509 113.338 54.404 113.378 C 53.964 113.92 53.501 114.537 53.014 115.226 C 52.537 115.901 52.087 116.636 51.666 117.432 C 51.246 118.226 50.896 119.056 50.618 119.916 C 50.352 120.775 50.217 121.639 50.217 122.499 C 50.217 123.294 50.26 124.075 50.347 124.844 C 50.433 125.613 50.477 126.394 50.477 127.188 L 50.477 128.402 C 50.343 128.586 50.222 128.738 50.118 128.857 C 50.02 128.976 49.878 129.037 49.688 129.037 C 49.411 129.037 49.133 128.864 48.856 128.519 C 48.588 128.188 48.416 127.845 48.34 127.487 Z M 66.734 119.26 C 66.583 119.632 66.411 120.075 66.217 120.591 C 66.026 121.121 65.821 121.684 65.601 122.28 C 65.383 122.862 65.142 123.453 64.885 124.049 C 64.626 124.644 64.36 125.187 64.081 125.679 C 63.804 126.169 63.514 126.578 63.205 126.911 C 62.9 127.254 62.591 127.461 62.276 127.526 C 62.142 127.526 61.987 127.512 61.816 127.487 C 61.655 127.447 61.487 127.388 61.313 127.307 C 61.142 127.229 61.004 127.11 60.898 126.95 C 60.794 126.805 60.741 126.599 60.741 126.334 C 60.751 123.964 60.875 121.804 61.114 119.856 C 61.352 117.922 61.721 116.213 62.218 114.73 C 62.726 113.245 63.374 112.013 64.167 111.032 C 64.952 110.065 65.909 109.369 67.035 108.946 C 67.073 108.946 67.135 108.939 67.222 108.926 C 67.318 108.914 67.378 108.907 67.408 108.907 C 67.916 108.88 68.284 109.204 68.512 109.88 C 68.741 110.542 68.91 111.589 69.015 113.019 C 69.129 114.452 69.206 116.294 69.244 118.545 C 69.282 120.783 69.367 123.473 69.502 126.612 C 69.559 126.877 69.592 127.103 69.602 127.288 C 69.602 127.473 69.602 127.691 69.602 127.944 C 69.602 128.3 69.53 128.565 69.386 128.738 C 69.234 128.913 69.039 128.998 68.798 128.998 C 68.311 128.998 67.968 128.811 67.767 128.441 C 67.565 128.068 67.433 127.566 67.365 126.93 C 67.365 126.916 67.352 126.732 67.321 126.374 C 67.303 126.031 67.27 125.633 67.222 125.182 C 67.184 124.718 67.146 124.253 67.107 123.791 C 67.078 123.327 67.055 122.942 67.035 122.638 L 67.035 122.499 C 67.005 122.261 66.987 121.969 66.978 121.624 C 66.969 121.281 66.944 120.944 66.906 120.61 C 66.876 120.214 66.854 119.817 66.834 119.419 L 66.734 119.26 M 66.174 112.344 C 65.725 112.807 65.281 113.431 64.841 114.212 C 64.402 115.007 64.092 115.776 63.909 116.517 C 63.823 116.875 63.734 117.358 63.635 117.968 C 63.533 118.564 63.442 119.161 63.364 119.757 C 63.289 120.352 63.228 120.902 63.178 121.407 C 63.13 121.896 63.106 122.215 63.106 122.361 C 63.125 122.361 63.145 122.334 63.164 122.28 C 63.193 122.241 63.217 122.207 63.235 122.181 C 64.279 120.79 65.01 119.286 65.429 117.669 C 65.86 116.041 66.107 114.265 66.174 112.344 Z M 69.911 124.805 C 69.796 124.102 69.801 123.273 69.925 122.319 C 70.05 121.367 70.248 120.406 70.526 119.44 C 70.815 118.472 71.163 117.557 71.574 116.696 C 71.984 115.836 72.419 115.153 72.88 114.649 C 73.338 114.133 73.806 113.841 74.285 113.776 C 74.772 113.722 75.23 114.019 75.66 114.669 C 75.66 114.695 75.67 114.755 75.689 114.848 C 75.708 114.942 75.723 115.132 75.732 115.425 C 75.751 115.717 75.765 116.125 75.777 116.656 C 75.784 117.173 75.789 117.889 75.789 118.803 C 75.808 118.842 75.827 118.915 75.846 119.021 C 75.877 119.126 75.892 119.207 75.892 119.26 C 75.84 119.511 75.748 119.751 75.604 119.975 C 75.461 120.187 75.278 120.293 75.059 120.293 C 74.772 120.293 74.544 120.233 74.371 120.114 C 74.189 119.982 74.055 119.672 73.969 119.18 C 74.006 119.115 74.017 118.968 73.999 118.744 C 73.979 118.518 73.95 118.266 73.911 117.988 C 73.873 117.711 73.835 117.432 73.797 117.154 C 73.767 116.875 73.755 116.656 73.755 116.498 C 73.735 116.498 73.711 116.512 73.682 116.537 C 73.663 116.577 73.645 116.612 73.626 116.636 C 73.338 117.327 73.07 118.101 72.822 118.961 C 72.583 119.81 72.399 120.67 72.278 121.544 C 72.153 122.42 72.109 123.288 72.149 124.148 C 72.186 125.009 72.368 125.785 72.692 126.473 C 72.922 126.473 73.138 126.34 73.338 126.077 C 73.549 125.812 73.72 125.559 73.855 125.32 C 74.141 124.858 74.421 124.38 74.7 123.89 C 74.978 123.399 75.23 122.889 75.461 122.361 C 75.564 122.122 75.64 121.909 75.689 121.724 C 75.736 121.539 75.799 121.392 75.877 121.286 C 75.952 121.167 76.048 121.069 76.163 120.989 C 76.286 120.924 76.463 120.889 76.695 120.889 C 76.96 120.889 77.213 120.975 77.453 121.148 C 77.692 121.332 77.811 121.619 77.811 122.001 C 77.811 122.545 77.638 123.221 77.296 124.03 C 76.951 124.824 76.53 125.594 76.034 126.334 C 75.537 127.089 75.011 127.726 74.456 128.241 C 73.903 128.772 73.413 129.037 72.993 129.037 C 72.593 129.037 72.201 128.924 71.818 128.699 C 71.445 128.473 71.119 128.176 70.843 127.804 C 70.565 127.434 70.341 126.989 70.169 126.473 C 69.996 125.971 69.911 125.414 69.911 124.805 Z M 77.937 130.288 C 77.937 130.17 77.927 129.97 77.908 129.693 C 77.9 129.414 77.888 129.117 77.881 128.798 C 77.869 128.494 77.86 128.202 77.852 127.923 C 77.842 127.66 77.839 127.466 77.839 127.349 C 77.819 126.697 77.812 125.712 77.823 124.387 C 77.832 123.061 77.842 121.6 77.852 119.994 C 77.86 118.406 77.875 116.77 77.896 115.087 C 77.903 113.418 77.908 111.887 77.908 110.496 C 77.908 109.119 77.903 107.973 77.896 107.058 C 77.896 106.159 77.875 105.694 77.839 105.667 C 77.839 105.43 77.896 105.191 78.01 104.952 C 78.132 104.7 78.287 104.6 78.467 104.654 C 78.601 104.654 78.756 104.68 78.928 104.733 C 79.107 104.799 79.275 104.887 79.43 104.992 C 79.582 105.111 79.711 105.257 79.815 105.43 C 79.921 105.614 79.974 105.832 79.974 106.086 L 79.974 116.279 L 80.074 116.279 L 82.983 111.708 C 83.101 111.497 83.207 111.251 83.315 110.972 C 83.429 110.695 83.543 110.43 83.657 110.179 C 83.775 109.914 83.908 109.676 84.061 109.464 C 84.213 109.264 84.407 109.126 84.648 109.045 C 85 109.165 85.302 109.33 85.55 109.542 C 85.8 109.756 85.924 110.125 85.924 110.655 C 85.924 110.709 85.914 110.788 85.896 110.894 C 85.866 110.987 85.843 111.059 85.823 111.113 C 85.774 111.205 85.671 111.385 85.508 111.648 C 85.354 111.913 85.096 112.359 84.735 112.98 C 84.37 113.603 83.881 114.417 83.271 115.425 C 82.659 116.443 81.871 117.755 80.905 119.359 L 81.136 119.538 L 86.025 120.233 C 86.243 120.272 86.444 120.437 86.626 120.731 C 86.798 121.023 86.885 121.301 86.885 121.565 C 86.885 122.028 86.764 122.361 86.527 122.558 C 86.277 122.758 86.011 122.876 85.724 122.916 C 85.704 122.823 85.652 122.772 85.565 122.758 C 85.469 122.743 85.237 122.718 84.864 122.677 C 84.499 122.624 83.945 122.545 83.2 122.439 C 82.445 122.334 81.402 122.142 80.074 121.863 L 80.174 130.189 C 80.174 130.653 80.116 131.005 80.002 131.242 C 79.888 131.495 79.63 131.619 79.229 131.619 C 78.922 131.619 78.655 131.488 78.426 131.223 C 78.204 130.944 78.044 130.632 77.937 130.288 Z" style="text-transform: none; stroke: none; fill: rgb(157, 208, 140); stroke-linecap: butt;" bx:origin="0.5 0.5"/>
  <path d="M 92.2 121.784 C 92.154 120.863 92.103 119.907 92.046 118.921 C 91.989 117.921 91.903 116.956 91.788 116.023 C 91.707 116.023 91.564 116.017 91.359 116.006 C 91.153 115.995 90.952 115.957 90.757 115.89 C 90.551 115.824 90.374 115.74 90.224 115.641 C 90.065 115.551 89.984 115.43 89.984 115.274 C 89.984 115.03 90.047 114.785 90.173 114.541 C 90.288 114.286 90.436 114.046 90.619 113.826 C 90.804 113.592 90.985 113.388 91.169 113.21 C 91.363 113.021 91.531 112.865 91.667 112.743 L 91.667 107.798 C 91.667 107.51 91.811 107.299 92.097 107.167 C 92.385 107.021 92.652 106.95 92.905 106.95 C 93.536 106.95 93.936 107.088 94.107 107.366 C 94.291 107.654 94.394 107.978 94.416 108.332 C 94.438 108.687 94.445 109.026 94.434 109.347 C 94.422 109.681 94.537 109.892 94.777 109.979 C 95.178 109.78 95.562 109.569 95.928 109.347 C 96.284 109.136 96.633 108.943 96.976 108.764 C 97.319 108.597 97.681 108.46 98.059 108.348 C 98.425 108.236 98.82 108.182 99.243 108.182 C 99.45 108.182 99.668 108.203 99.897 108.248 C 100.137 108.293 100.355 108.365 100.55 108.465 C 100.756 108.553 100.927 108.681 101.065 108.848 C 101.19 109.014 101.254 109.226 101.254 109.48 C 101.254 109.958 101.19 110.396 101.065 110.795 C 100.927 111.195 100.756 111.589 100.55 111.978 C 100.355 112.355 100.142 112.726 99.914 113.093 C 99.695 113.46 99.496 113.838 99.313 114.225 C 99.403 114.225 99.57 114.241 99.811 114.274 C 100.063 114.308 100.322 114.337 100.583 114.358 C 100.859 114.38 101.116 114.409 101.357 114.442 C 101.609 114.475 101.774 114.491 101.855 114.491 C 102.221 114.557 102.645 114.67 103.126 114.824 C 103.607 114.969 104.054 115.175 104.466 115.441 C 104.878 115.695 105.227 116.001 105.514 116.356 C 105.812 116.722 105.961 117.134 105.961 117.588 C 105.961 118.076 105.863 118.57 105.669 119.069 C 105.475 119.57 105.245 120.014 104.981 120.402 C 104.891 120.535 104.758 120.723 104.587 120.967 C 104.402 121.202 104.221 121.438 104.036 121.685 C 103.866 121.917 103.705 122.129 103.556 122.316 C 103.406 122.494 103.321 122.595 103.298 122.616 L 96.89 127.993 C 96.672 128.161 96.483 128.272 96.323 128.327 C 96.164 128.382 95.975 128.411 95.757 128.411 C 95.596 128.411 95.367 128.393 95.069 128.36 C 94.772 128.327 94.463 128.276 94.142 128.21 C 93.833 128.144 93.558 128.06 93.317 127.96 C 93.088 127.849 92.962 127.706 92.939 127.527 L 92.2 122.033 L 92.2 121.784 M 95.482 125.512 L 95.516 125.512 C 95.632 125.512 95.802 125.479 96.031 125.413 C 96.25 125.347 96.392 125.284 96.461 125.23 C 96.551 125.164 96.701 125.041 96.908 124.864 C 97.126 124.685 97.354 124.502 97.595 124.314 C 97.847 124.115 98.075 123.932 98.281 123.764 C 98.499 123.587 98.665 123.465 98.78 123.398 C 99.159 123.099 99.609 122.733 100.137 122.3 C 100.665 121.868 101.163 121.406 101.631 120.919 C 102.1 120.43 102.495 119.925 102.818 119.403 C 103.138 118.882 103.298 118.371 103.298 117.871 C 103.298 117.549 103.19 117.293 102.971 117.106 C 102.744 116.927 102.468 116.783 102.147 116.672 C 101.825 116.561 101.49 116.489 101.134 116.456 C 100.79 116.423 100.497 116.407 100.257 116.407 C 99.788 116.407 99.346 116.485 98.935 116.639 C 98.534 116.794 98.156 116.989 97.801 117.221 C 97.445 117.467 97.101 117.733 96.77 118.02 C 96.448 118.309 96.123 118.599 95.79 118.888 C 95.722 118.954 95.624 119.015 95.499 119.069 C 95.384 119.137 95.27 119.216 95.155 119.303 C 95.04 119.392 94.943 119.48 94.863 119.57 C 94.783 119.658 94.754 119.752 94.777 119.853 L 95.482 125.512 M 98.041 110.778 C 97.995 110.801 97.916 110.846 97.801 110.913 C 97.686 110.978 97.578 111.057 97.474 111.145 C 97.359 111.233 97.245 111.312 97.13 111.378 C 97.016 111.433 96.937 111.474 96.89 111.495 C 96.89 111.495 96.775 111.583 96.547 111.76 C 96.306 111.94 96.049 112.133 95.773 112.343 C 95.487 112.565 95.229 112.765 95.001 112.944 C 94.761 113.132 94.64 113.238 94.64 113.259 L 94.64 115.757 L 94.777 115.757 C 94.777 115.757 94.846 115.686 94.984 115.541 C 95.12 115.386 95.281 115.203 95.463 114.991 C 95.659 114.791 95.847 114.58 96.031 114.358 C 96.203 114.147 96.345 113.974 96.461 113.842 C 96.53 113.73 96.655 113.559 96.839 113.326 C 97.034 113.081 97.153 112.926 97.2 112.86 C 97.268 112.739 97.359 112.577 97.474 112.378 C 97.578 112.178 97.681 111.989 97.784 111.811 C 97.887 111.623 97.978 111.462 98.059 111.328 C 98.14 111.184 98.178 111.112 98.178 111.112 L 98.178 110.778 L 98.041 110.778 Z M 115.886 123.232 C 115.864 123.232 115.716 123.469 115.44 123.948 C 115.155 124.426 114.777 124.948 114.306 125.512 C 113.837 126.079 113.288 126.6 112.658 127.078 C 112.016 127.555 111.341 127.794 110.63 127.794 C 109.646 127.794 108.822 127.499 108.156 126.912 C 107.494 126.324 107.16 125.524 107.16 124.514 C 107.116 123.992 107.19 123.371 107.383 122.65 C 107.578 121.939 107.858 121.196 108.224 120.418 C 108.592 119.652 109.039 118.909 109.565 118.188 C 110.093 117.456 110.659 116.822 111.266 116.289 C 111.862 115.768 112.492 115.374 113.155 115.107 C 113.82 114.853 114.484 114.808 115.148 114.974 L 115.148 114.524 C 115.148 113.959 115.13 113.376 115.097 112.777 C 115.062 112.19 115.028 111.505 114.994 110.729 C 114.96 109.964 114.932 109.075 114.908 108.065 C 114.874 107.055 114.857 105.845 114.857 104.436 C 114.914 104.203 115.028 104.048 115.2 103.97 C 115.371 103.892 115.555 103.853 115.749 103.853 C 116.265 103.853 116.678 104.019 116.986 104.352 C 117.285 104.674 117.467 105.073 117.536 105.551 C 117.491 106.283 117.475 107.037 117.485 107.815 C 117.496 108.581 117.536 109.452 117.605 110.429 C 117.673 111.406 117.777 112.51 117.915 113.742 C 118.063 114.974 118.253 116.435 118.481 118.122 C 118.7 119.798 118.962 121.721 119.272 123.899 C 119.592 126.085 119.966 128.61 120.387 131.472 L 120.387 132.572 C 120.387 132.704 120.336 132.805 120.234 132.872 C 120.131 132.926 120.01 132.971 119.872 133.004 C 119.725 133.038 119.575 133.06 119.426 133.071 C 119.288 133.083 119.185 133.088 119.117 133.088 C 118.773 133.088 118.413 133 118.034 132.822 C 117.656 132.634 117.432 132.378 117.365 132.056 L 116.128 123.365 C 116.128 123.298 116.1 123.26 116.041 123.249 C 115.985 123.237 115.934 123.232 115.886 123.232 M 109.977 123.948 C 109.977 124.015 109.973 124.131 109.961 124.298 C 109.95 124.464 109.95 124.631 109.961 124.797 C 109.973 124.976 110.002 125.125 110.046 125.247 C 110.093 125.38 110.183 125.446 110.321 125.446 C 110.883 125.467 111.461 125.263 112.056 124.83 C 112.639 124.398 113.179 123.86 113.671 123.216 C 114.164 122.583 114.577 121.896 114.908 121.151 C 115.229 120.418 115.406 119.757 115.44 119.17 C 115.475 118.593 115.327 118.143 114.994 117.821 C 114.674 117.509 114.125 117.443 113.344 117.621 C 112.382 118.442 111.582 119.381 110.939 120.436 C 110.299 121.501 109.977 122.671 109.977 123.948 Z" style="fill: rgb(126, 139, 170); text-transform: uppercase;" bx:origin="0.5 0.5"/>
</svg>